<?xml version="1.0" encoding="UTF-8" standalone="no"?>
<svg
   width="397.66418"
   height="388.74942"
   viewBox="0 0 397.66418 388.74942"
   version="1.1"
   xml:space="preserve"
   style="clip-rule:evenodd;fill-rule:evenodd;stroke-linecap:round;stroke-linejoin:round;stroke-miterlimit:1.5"
   id="svg1"
   sodipodi:docname="logo.svg"
   inkscape:version="1.4 (e7c3feb1, 2024-10-09)"
   xmlns:inkscape="http://www.inkscape.org/namespaces/inkscape"
   xmlns:sodipodi="http://sodipodi.sourceforge.net/DTD/sodipodi-0.dtd"
   xmlns:xlink="http://www.w3.org/1999/xlink"
   xmlns="http://www.w3.org/2000/svg"
   xmlns:svg="http://www.w3.org/2000/svg"><defs
     id="defs1"><linearGradient
       id="linearGradient3"
       inkscape:collect="always"><stop
         style="stop-color:#9e1402;stop-opacity:0.99607843;"
         offset="0"
         id="stop3" /><stop
         style="stop-color:#9e1402;stop-opacity:0;"
         offset="1"
         id="stop4" /></linearGradient><linearGradient
       id="linearGradient1"
       inkscape:collect="always"><stop
         style="stop-color:#9e1402;stop-opacity:0.99607843;"
         offset="0"
         id="stop1" /><stop
         style="stop-color:#9e1402;stop-opacity:0.17826086;"
         offset="1"
         id="stop2" /></linearGradient><linearGradient
       inkscape:collect="always"
       xlink:href="#linearGradient1"
       id="linearGradient2"
       x1="108.20207"
       y1="177.25208"
       x2="538.16296"
       y2="-9.2541246"
       gradientUnits="userSpaceOnUse" /><linearGradient
       inkscape:collect="always"
       xlink:href="#linearGradient3"
       id="linearGradient4"
       x1="108.20207"
       y1="177.25208"
       x2="538.16296"
       y2="-9.2541246"
       gradientUnits="userSpaceOnUse" /></defs><sodipodi:namedview
     id="namedview1"
     pagecolor="#ffffff"
     bordercolor="#000000"
     borderopacity="0.25"
     inkscape:showpageshadow="2"
     inkscape:pageopacity="0.0"
     inkscape:pagecheckerboard="0"
     inkscape:deskcolor="#d1d1d1"
     inkscape:zoom="0.7837335"
     inkscape:cx="292.19116"
     inkscape:cy="96.333766"
     inkscape:window-width="1712"
     inkscape:window-height="984"
     inkscape:window-x="0"
     inkscape:window-y="25"
     inkscape:window-maximized="0"
     inkscape:current-layer="svg1" /><path
     d="m 367.48334,44.06845 c -7.129,-0.171 -12.088,0.6 -16.863,1.821 -14,3.575 -22.979,7.558 -37.762,15.779 -26.763,14.883 -44.496,36.087 -46.554,35.808 -2.059,-0.279 -2.817,-7.321 -9.371,-12.983 -13.6,-11.754 -28.479,-14.638 -28.479,-14.638 -29.334,-8.566 -38.421,-19.708 -44.759,-25.97 -6.337,-6.263 -7.25,-10.117 -6.304,-13.692 0.946,-3.583 5.758,-6.954 15.625,-7.383 14.121,-0.617 38.938,2.05 25.979,-4.438 -12.062,-6.042 -33.304,-15.65 -67.329,-16.242 -37.646,-0.654 -60.303997,5.292 -95.482997,32.817 10.516,-6.375 19.696,-10.992 32.971,-16.554 16.940997,-7.092 22.644997,-7.492 34.894997,-9.121 12.95,-1.725 26.25,-0.45 31.017,1.879 1.792,0.871 -1.017,11.359 -1.829,18.163 -0.479,4.037 0.346,11.746 3.812,18.546 3.23,6.333 9.813,17.262 14.013,21.779 3.125,3.362 8.704,8.35 13.458,12.471 4.475,3.879 8.8,7.975 10.909,15.345 1.683,5.884 0.837,11.134 -1.438,17.313 -1.858,5.05 -9.462,12.862 -17.371,16.504 -6.271,2.883 -22.516,5.888 -28.404,6.008 -9.908,0.2 -24.833,0.775 -30.342,1.588 -3.316,0.487 -10.429,3.271 -14.366,5.271 -2.875,1.458 -6.537997,4.146 -10.395997,8.033 -2.783,3 -8.138,10.517 -10.658,19.204 -2.263,7.788 -6.784,25.242 -2.038,36.275 4.942,11.504 9.242,23.013 10.642,39.613 0.858,13.258 1.146,26.971 0.7,41.279 -0.792,14.837 -3.871,29.633 -10.209,44.362 -10.041,17.088 -26.033,29.113 -49.141,35.08 -2.713,0.7 -12.409,0.262 -16.038,0.112 0,0 -1.096,2.071 -8.175,8.942 -7.075,6.866 -6.062,9.625 -6.062,9.625 l 17.896,-5.1 -0.009,0.008 c 8.917,-2.883 21.488,-7.971 21.488,-7.971 16.854,-6.404 31.346,-16.116 42.675,-30.262 0,0 9.875,-10.288 14.996,-21.988 4.724997,-10.796 6.586997,-20.679 10.449997,-33.579 2.962,-9.908 7.229,-31.758 8.083,-47.196 1.187,-21.387 7.15,-33.246 11.358,-37.254 8.796,-8.379 16.396,-11.608 30.559,-14.242 22.954,-1.862 25.379,-2.012 40.412,-5.904 30.079,-7.787 47.104,-11.829 59.2,-35.108 33.133,-63.783 85.838,-91.213 85.838,-91.213 12.97,-6.045 29.004,-4.683 29.27,-4.837 0.267,-0.158 6.888,9.125 7.171,8.637 0.284,-0.487 14.059,-19.95 14.059,-19.95 -8.863,-1.212 -17.842,3.792 -28.584,3.396"
     style="fill:url(#linearGradient2);stroke:url(#linearGradient4);stroke-width:1.27;fill-opacity:1;stroke-dasharray:none"
     id="path1" /></svg>
